<svg width="219" height="34" viewBox="0 0 219 34" fill="none" xmlns="http://www.w3.org/2000/svg">
<path d="M17 3.23607L19.8657 12.0557L20.0902 12.7467H20.8167L30.0903 12.7467L22.5878 18.1976L22 18.6246L22.2246 19.3156L25.0902 28.1353L17.5878 22.6844L17 22.2574L16.4122 22.6844L8.90976 28.1353L11.7754 19.3156L12 18.6246L11.4122 18.1976L3.90972 12.7467L13.1833 12.7467H13.9098L14.1343 12.0557L17 3.23607Z" fill="#F4D35E" stroke="#F4D35E" stroke-width="2"/>
<path d="M64 3.23607L66.8657 12.0557L67.0902 12.7467H67.8167L77.0903 12.7467L69.5878 18.1976L69 18.6246L69.2246 19.3156L72.0902 28.1353L64.5878 22.6844L64 22.2574L63.4122 22.6844L55.9098 28.1353L58.7754 19.3156L59 18.6246L58.4122 18.1976L50.9097 12.7467L60.1833 12.7467H60.9098L61.1343 12.0557L64 3.23607Z" fill="#F4D35E" stroke="#F4D35E" stroke-width="2"/>
<path d="M106 3.23607L108.866 12.0557L109.09 12.7467H109.817L119.09 12.7467L111.588 18.1976L111 18.6246L111.225 19.3156L114.09 28.1353L106.588 22.6844L106 22.2574L105.412 22.6844L97.9098 28.1353L100.775 19.3156L101 18.6246L100.412 18.1976L92.9097 12.7467L102.183 12.7467H102.91L103.134 12.0557L106 3.23607Z" fill="#F4D35E" stroke="#F4D35E" stroke-width="2"/>
<path d="M154 3.23607L156.866 12.0557L157.09 12.7467H157.817L167.09 12.7467L159.588 18.1976L159 18.6246L159.225 19.3156L162.09 28.1353L154.588 22.6844L154 22.2574L153.412 22.6844L145.91 28.1353L148.775 19.3156L149 18.6246L148.412 18.1976L140.91 12.7467L150.183 12.7467H150.91L151.134 12.0557L154 3.23607Z" fill="#F4D35E" stroke="#F4D35E" stroke-width="2"/>
<path d="M202 3.23607L204.866 12.0557L205.09 12.7467H205.817L215.09 12.7467L207.588 18.1976L207 18.6246L207.225 19.3156L210.09 28.1353L202.588 22.6844L202 22.2574L201.412 22.6844L193.91 28.1353L196.775 19.3156L197 18.6246L196.412 18.1976L188.91 12.7467L198.183 12.7467H198.91L199.134 12.0557L202 3.23607Z"  stroke="#F4D35E" stroke-width="2"/>
</svg>
