<svg width="529" height="77" viewBox="0 0 529 77" fill="none" xmlns="http://www.w3.org/2000/svg">
<rect width="529" height="77" fill="white"/>
<path d="M60.5 1.61804L68.6683 26.7574L68.7805 27.1028H69.1438L95.5768 27.1028L74.1921 42.6398L73.8982 42.8533L74.0104 43.1988L82.1787 68.3381L60.7939 52.8012L60.5 52.5877L60.2061 52.8012L38.8213 68.3381L46.9896 43.1988L47.1018 42.8533L46.8079 42.6398L25.4232 27.1028L51.8562 27.1028H52.2195L52.3317 26.7574L60.5 1.61804Z" fill="#FFC700" stroke="white"/>
<path d="M166.941 1.61804L175.11 26.7574L175.222 27.1028H175.585L202.018 27.1028L180.633 42.6398L180.34 42.8533L180.452 43.1988L188.62 68.3381L167.235 52.8012L166.941 52.5877L166.648 52.8012L145.263 68.3381L153.431 43.1988L153.543 42.8533L153.249 42.6398L131.865 27.1028L158.298 27.1028H158.661L158.773 26.7574L166.941 1.61804Z" fill="#FFC700" stroke="white"/>
<path d="M262.059 1.61804L270.227 26.7574L270.339 27.1028H270.702L297.135 27.1028L275.751 42.6398L275.457 42.8533L275.569 43.1988L283.737 68.3381L262.352 52.8012L262.059 52.5877L261.765 52.8012L240.38 68.3381L248.548 43.1988L248.66 42.8533L248.367 42.6398L226.982 27.1028L253.415 27.1028H253.778L253.89 26.7574L262.059 1.61804Z" fill="#FFC700" stroke="white"/>
<path d="M370.766 1.61804L378.934 26.7574L379.046 27.1028H379.409L405.842 27.1028L384.458 42.6398L384.164 42.8533L384.276 43.1988L392.444 68.3381L371.06 52.8012L370.766 52.5877L370.472 52.8012L349.087 68.3381L357.255 43.1988L357.367 42.8533L357.074 42.6398L335.689 27.1028L362.122 27.1028H362.485L362.597 26.7574L370.766 1.61804Z" fill="#FFC700" stroke="white"/>
<path d="M479.471 1.61804L487.639 26.7574L487.751 27.1028H488.114L514.548 27.1028L493.163 42.6398L492.869 42.8533L492.981 43.1988L501.149 68.3381L479.765 52.8012L479.471 52.5877L479.177 52.8012L457.792 68.3381L465.96 43.1988L466.073 42.8533L465.779 42.6398L444.394 27.1028L470.827 27.1028H471.19L471.302 26.7574L479.471 1.61804Z" fill="#FFC700" stroke="white"/>
</svg>
